<?xml version="1.0" standalone="no"?>
<!DOCTYPE svg PUBLIC "-//W3C//DTD SVG 20010904//EN"
 "http://www.w3.org/TR/2001/REC-SVG-20010904/DTD/svg10.dtd">
<svg version="1.0" xmlns="http://www.w3.org/2000/svg"
 width="512.000000pt" height="512.000000pt" viewBox="0 0 512.000000 512.000000"
 preserveAspectRatio="xMidYMid meet">

<g transform="translate(0.000000,512.000000) scale(0.100000,-0.100000)"
fill="#000000" stroke="none">
<path d="M1210 5107 c-79 -19 -131 -49 -183 -107 -78 -86 -101 -205 -73 -366
19 -110 87 -310 115 -337 43 -43 121 -13 121 46 0 16 -15 70 -34 121 -81 216
-86 360 -15 441 63 71 161 82 263 28 65 -35 223 -194 301 -302 65 -92 191
-299 244 -401 l34 -65 -27 -39 c-49 -72 -60 -126 -61 -306 -1 -102 -6 -176
-14 -194 -31 -76 -95 -206 -100 -206 -14 1 -284 393 -378 547 -36 60 -70 75
-112 52 -39 -22 -49 -61 -27 -106 30 -62 237 -372 360 -537 98 -132 115 -161
121 -203 10 -71 33 -140 72 -212 23 -44 31 -66 23 -71 -6 -4 -161 -44 -343
-89 -320 -79 -333 -84 -364 -117 -28 -29 -33 -41 -33 -84 0 -63 21 -105 62
-126 41 -21 233 -37 406 -32 72 2 132 2 132 1 0 -2 -62 -44 -137 -95 -542
-361 -843 -673 -843 -871 0 -67 9 -88 59 -140 37 -39 106 -67 166 -67 100 0
310 95 481 217 214 154 527 412 721 597 l102 97 7 -37 c12 -67 -3 -163 -39
-239 -42 -88 -104 -166 -218 -275 -77 -75 -89 -90 -89 -119 0 -47 49 -90 165
-147 l92 -45 7 -96 c16 -209 70 -462 141 -657 36 -98 36 -100 24 -173 -6 -40
-9 -101 -7 -135 18 -216 201 -326 355 -212 43 32 69 78 89 155 15 56 15 77 4
169 l-12 105 36 97 c69 191 122 445 141 680 6 71 8 77 32 83 55 13 158 70 194
106 63 63 57 79 -63 198 -88 86 -108 101 -135 101 -43 0 -73 -30 -73 -72 0
-26 12 -44 61 -94 l60 -61 -48 -21 c-198 -85 -483 -102 -699 -42 -83 23 -164
56 -164 68 0 4 23 30 51 57 75 74 144 172 188 266 88 191 83 338 -19 540 -62
123 -77 177 -61 229 15 51 76 103 147 125 71 22 202 23 274 2 177 -53 202
-144 98 -357 -31 -63 -62 -140 -69 -170 -17 -75 -14 -206 5 -235 20 -31 59
-39 96 -20 34 17 45 49 37 103 -3 20 -2 57 2 82 l6 45 100 -95 c422 -402 772
-654 1030 -741 55 -19 91 -24 170 -24 88 0 105 3 145 25 172 97 103 290 -211
583 -140 131 -285 242 -519 399 -107 71 -196 131 -197 132 -1 0 49 0 110 -2
138 -5 442 13 479 27 78 30 92 170 22 216 -13 8 -103 31 -200 50 -97 19 -201
42 -233 51 -82 23 -264 83 -279 92 -9 6 -5 21 18 63 36 66 70 169 70 215 0 28
16 55 88 147 399 508 654 954 718 1256 21 99 18 240 -6 302 -41 110 -120 183
-239 220 -80 24 -142 24 -224 -1 -199 -62 -389 -277 -620 -703 -53 -99 -73
-127 -86 -123 -9 3 -43 15 -76 27 -74 26 -211 28 -299 4 -56 -15 -63 -15 -145
6 -107 27 -204 22 -310 -16 -40 -15 -74 -25 -75 -23 -2 2 -18 30 -36 63 -331
599 -588 832 -850 772z m2716 -165 c163 -84 160 -286 -10 -637 -107 -221 -249
-447 -475 -753 l-106 -144 -55 114 -55 113 -1 165 c0 180 -8 223 -55 307 -16
29 -29 58 -29 64 0 22 174 336 246 445 197 297 381 408 540 326z m-1454 -784
l86 -22 79 19 c162 40 286 15 366 -75 61 -68 71 -107 72 -290 l0 -155 39 -85
c103 -226 109 -246 104 -339 -3 -75 -9 -96 -42 -164 -21 -42 -42 -77 -47 -77
-23 0 -269 141 -308 176 -2 2 17 27 42 55 59 68 103 157 117 241 7 38 10 132
8 220 -3 139 -5 156 -26 190 -25 41 -91 78 -138 78 -16 0 -50 -10 -74 -22 -35
-18 -52 -37 -80 -86 -84 -150 -217 -233 -418 -262 -69 -10 -86 -17 -103 -39
-17 -21 -20 -35 -15 -75 7 -65 61 -177 119 -248 26 -32 47 -60 47 -62 0 -6
-143 -96 -223 -140 -37 -21 -74 -36 -81 -33 -22 9 -73 106 -92 175 -25 89 -12
157 59 308 79 168 89 212 81 359 -7 135 0 176 45 247 46 72 153 125 256 128
22 0 79 -10 127 -22z m363 -549 c0 -156 -1 -167 -26 -220 -15 -32 -58 -89
-103 -137 -113 -121 -107 -140 84 -266 229 -151 502 -266 812 -341 55 -13 103
-27 106 -30 9 -9 -279 -5 -402 6 -66 5 -162 19 -214 30 -52 10 -96 19 -98 19
-2 0 -10 13 -19 30 -63 122 -220 191 -435 191 -202 -1 -335 -64 -399 -189 -19
-37 -23 -40 -99 -56 -43 -9 -121 -24 -173 -32 -107 -16 -477 -31 -505 -19 -13
5 20 16 107 35 349 78 635 192 862 343 115 77 167 127 167 160 0 18 -20 46
-73 99 -72 72 -136 163 -123 175 3 4 37 14 74 24 187 47 351 169 418 312 32
66 39 41 39 -134z m-677 -1218 l26 -65 -110 -105 c-215 -207 -597 -521 -794
-652 -191 -128 -324 -175 -385 -135 -79 52 43 217 351 475 248 207 625 473
809 570 l60 32 8 -28 c5 -15 20 -57 35 -92z m949 63 c124 -71 437 -277 568
-374 296 -218 585 -500 585 -572 0 -41 -119 -53 -212 -22 -224 73 -598 346
-990 723 l-128 123 21 40 c12 23 27 63 35 90 8 26 16 48 19 48 2 0 48 -25 102
-56z m-567 -1178 c80 0 170 4 201 8 l56 7 -4 -53 c-16 -203 -61 -414 -134
-623 -40 -116 -41 -123 -33 -195 12 -112 9 -191 -10 -228 -32 -62 -102 -48
-126 24 -9 27 -10 61 -4 118 14 142 10 172 -38 312 -54 151 -91 311 -113 477
-22 173 -23 169 23 161 20 -4 102 -8 182 -8z"/>
</g>
</svg>
