<?xml version="1.0" standalone="no"?>
<!DOCTYPE svg PUBLIC "-//W3C//DTD SVG 20010904//EN"
 "http://www.w3.org/TR/2001/REC-SVG-20010904/DTD/svg10.dtd">
<svg version="1.0" xmlns="http://www.w3.org/2000/svg"
 width="512.000000pt" height="512.000000pt" viewBox="0 0 512.000000 512.000000"
 preserveAspectRatio="xMidYMid meet">

<g transform="translate(0.000000,512.000000) scale(0.100000,-0.100000)"
fill="#000000" stroke="none">
<path d="M2488 4711 l-33 -29 -3 -231 -3 -231 -50 0 c-86 0 -128 -36 -129
-108 0 -35 6 -49 29 -73 29 -28 33 -29 138 -31 59 -1 129 -1 156 1 46 2 47 2
47 -28 l0 -31 -57 0 c-32 0 -74 -5 -93 -10 -94 -26 -185 -117 -260 -261 l-39
-76 -108 -28 c-59 -15 -156 -47 -215 -70 -60 -24 -108 -41 -108 -39 0 2 27 22
61 45 72 49 210 118 296 149 81 29 108 58 108 117 0 38 -5 49 -33 74 -44 39
-82 38 -196 -7 -273 -108 -538 -319 -702 -559 -88 -129 -117 -190 -110 -231
14 -72 111 -109 168 -65 13 11 45 55 70 98 25 43 55 89 67 103 l22 25 -17 -40
c-52 -127 -91 -247 -118 -367 -5 -21 -24 -36 -98 -75 -122 -63 -206 -145 -238
-228 -20 -54 -22 -71 -16 -171 40 -726 562 -1311 1286 -1440 241 -43 652 -3
726 71 37 37 34 107 -7 147 -28 29 -34 30 -88 25 l-58 -5 20 42 c11 22 21 42
22 44 2 2 32 10 66 18 106 24 248 74 355 124 l101 47 11 -44 c9 -31 21 -49 45
-63 66 -40 108 -22 207 91 168 190 286 415 344 658 196 809 -292 1633 -1094
1848 l-105 28 -3 110 c-1 61 -7 120 -14 133 -17 34 -59 52 -117 52 l-50 0 -3
231 -3 231 -33 29 c-24 22 -42 29 -72 29 -30 0 -48 -7 -72 -29z m141 -1026
c22 -24 41 -46 41 -47 0 -2 -49 -3 -109 -3 -121 0 -122 0 -61 63 46 46 77 43
129 -13z m416 -42 c131 -52 267 -132 360 -212 l30 -26 -40 -20 c-31 -15 -43
-30 -54 -61 l-14 -40 60 -120 c56 -110 128 -292 120 -301 -2 -2 -55 8 -118 21
-63 14 -157 31 -209 38 l-95 14 -16 107 c-10 59 -27 152 -39 208 -12 56 -20
102 -18 104 2 2 27 -3 57 -11 45 -11 58 -11 86 0 67 28 87 108 40 164 -24 28
-78 49 -218 83 -41 10 -51 17 -67 50 -11 21 -20 41 -20 44 0 11 63 -6 155 -42z
m-323 -229 l46 -6 20 -72 c23 -79 57 -243 68 -323 l6 -51 -302 0 -302 0 7 57
c8 70 47 258 69 333 16 52 20 57 49 61 55 7 292 7 339 1z m-612 -66 c0 -7 -5
-31 -12 -53 -6 -22 -23 -112 -38 -200 l-26 -160 -55 -7 c-165 -23 -193 -30
-221 -58 -42 -43 -40 -100 7 -147 35 -35 37 -36 93 -29 31 4 78 10 104 15 l47
8 3 -305 3 -304 -50 6 c-79 11 -286 54 -346 74 l-54 17 -8 60 c-12 84 -2 322
18 434 21 120 56 241 101 350 62 150 75 166 169 212 73 35 237 98 258 99 4 0
7 -6 7 -12z m1553 -206 c25 -37 61 -99 80 -138 40 -80 102 -252 94 -260 -3 -3
-23 4 -46 15 -28 15 -42 29 -46 49 -18 81 -80 275 -110 339 -41 88 -32 86 28
-5z m-779 -403 c3 -2 8 -84 12 -182 6 -144 10 -182 25 -206 34 -56 121 -58
167 -5 22 26 23 32 21 198 -1 139 1 171 12 169 134 -17 400 -75 429 -93 13 -8
15 -41 15 -202 -1 -210 -19 -341 -70 -503 -30 -96 -30 -111 -6 -151 41 -67
138 -63 180 7 11 17 34 87 51 154 l32 122 44 21 c54 27 55 24 13 -95 -41 -118
-107 -242 -186 -349 l-66 -88 -18 37 c-20 37 -63 67 -97 67 -11 0 -71 -26
-134 -59 -98 -49 -298 -128 -298 -116 0 2 13 71 29 152 16 81 33 175 36 209
l7 61 112 16 c159 24 184 33 206 70 27 44 25 89 -5 125 -34 41 -66 46 -171 28
-208 -36 -388 -49 -681 -50 -184 0 -296 3 -303 10 -14 14 -24 333 -15 506 l7
147 52 4 c66 6 594 2 600 -4z m-1544 -324 c0 -63 -4 -105 -10 -105 -5 0 -28
16 -50 36 -55 50 -54 79 5 133 24 22 47 41 50 41 3 0 5 -47 5 -105z m2495 64
c57 -53 58 -78 6 -130 -21 -22 -44 -39 -50 -39 -7 0 -11 34 -11 105 0 58 2
105 5 105 3 0 26 -19 50 -41z m-2437 -549 c42 -164 86 -267 123 -285 75 -39
159 8 159 89 0 13 -13 60 -29 103 -15 43 -31 90 -34 104 l-7 27 70 -18 c39
-10 135 -28 214 -41 l144 -23 6 -60 c4 -34 20 -127 36 -209 17 -81 30 -149 30
-151 0 -1 -26 4 -58 13 -50 12 -64 13 -91 1 -41 -17 -63 -50 -63 -95 0 -74 36
-99 201 -141 52 -13 96 -25 97 -27 7 -8 34 -81 30 -84 -8 -8 -162 49 -254 94
-304 149 -546 422 -661 746 -42 119 -41 122 13 95 l44 -21 30 -117z m1462 -90
c0 -37 -57 -310 -77 -372 l-18 -53 -90 -8 c-49 -5 -141 -6 -203 -2 -91 6 -114
10 -122 24 -21 41 -90 356 -90 416 0 20 7 20 300 20 l300 0 0 -25z m-210 -680
c-27 -38 -68 -70 -90 -70 -22 0 -63 32 -90 70 l-21 30 111 0 111 0 -21 -30z"/>
<path d="M982 4350 c-12 -5 -30 -23 -40 -40 -9 -16 -25 -33 -35 -36 -23 -7
-57 -62 -57 -92 0 -31 27 -92 53 -120 99 -106 280 -49 303 94 12 78 -29 153
-100 185 -44 20 -88 23 -124 9z"/>
<path d="M4523 4145 c-18 -7 -38 -23 -45 -35 -7 -12 -37 -33 -65 -46 -111 -53
-155 -124 -163 -264 l-5 -94 -65 -37 c-82 -46 -130 -105 -130 -160 0 -51 13
-75 50 -94 49 -25 87 -19 128 20 20 20 64 51 97 69 101 56 153 155 141 269 -5
53 -3 60 19 83 13 13 30 24 38 24 8 0 32 13 55 30 111 80 123 195 26 236 -40
17 -41 17 -81 -1z"/>
<path d="M4293 2460 c-45 -27 -62 -84 -39 -131 24 -51 308 -229 365 -229 77 0
127 73 97 144 -11 28 -44 52 -177 135 -97 60 -173 101 -188 101 -14 0 -40 -9
-58 -20z"/>
<path d="M581 1624 c-23 -21 -34 -41 -38 -70 -7 -57 20 -84 197 -194 167 -104
200 -112 251 -61 23 24 29 38 29 75 0 61 -16 76 -185 182 -166 103 -203 113
-254 68z"/>
<path d="M3247 1196 c-34 -32 -42 -66 -29 -129 5 -29 7 -78 5 -109 -5 -56 -4
-59 31 -94 32 -32 40 -36 79 -32 35 4 52 -1 103 -32 l61 -36 -26 -46 -26 -45
-50 28 c-137 77 -365 78 -424 2 -51 -64 -4 -168 75 -166 22 1 71 3 110 4 60 3
79 -1 127 -25 65 -31 110 -81 133 -146 9 -25 30 -57 45 -73 57 -53 156 -26
175 48 4 14 2 51 -4 81 -14 68 -2 141 33 200 30 52 70 84 146 117 31 14 64 35
73 48 25 36 21 101 -8 132 -32 34 -64 41 -134 29 -78 -14 -144 0 -209 43 -52
34 -95 93 -108 148 -18 71 -124 103 -178 53z"/>
</g>
</svg>
