<?xml version="1.0" standalone="no"?>
<!DOCTYPE svg PUBLIC "-//W3C//DTD SVG 20010904//EN"
 "http://www.w3.org/TR/2001/REC-SVG-20010904/DTD/svg10.dtd">
<svg version="1.0" xmlns="http://www.w3.org/2000/svg"
 width="200.000000pt" height="200.000000pt" viewBox="0 0 200.000000 200.000000"
 preserveAspectRatio="xMidYMid meet">

<g transform="translate(0.000000,200.000000) scale(0.100000,-0.100000)"
fill="#000000" stroke="none">
<path d="M774 1985 c-114 -20 -193 -52 -235 -94 l-36 -36 -13 -178 c-8 -106
-11 -256 -7 -375 5 -189 7 -206 56 -434 69 -321 76 -388 64 -573 -12 -188 -8
-201 77 -239 87 -39 180 -56 313 -56 175 0 343 42 388 96 10 12 13 73 14 253
1 225 3 243 33 381 17 80 42 199 57 265 19 90 27 164 32 295 8 222 -11 530
-35 580 -21 43 -96 83 -197 106 -100 22 -405 28 -511 9z m466 -36 c86 -14 170
-44 197 -72 32 -32 47 -236 40 -544 -5 -212 -8 -250 -32 -348 -14 -60 -42
-189 -61 -285 -35 -171 -35 -180 -32 -375 l3 -199 -33 -23 c-56 -37 -170 -57
-322 -57 -74 0 -164 6 -199 13 -77 15 -157 53 -163 78 -3 10 -1 79 4 153 13
195 4 265 -73 610 -59 259 -70 443 -49 760 14 207 14 205 63 234 49 29 148 54
262 66 92 10 302 4 395 -11z"/>
<path d="M584 1845 c-9 -23 2 -32 71 -51 90 -25 400 -31 580 -10 176 21 184
23 178 47 -6 23 7 23 -138 2 -78 -10 -189 -17 -315 -17 -187 0 -243 6 -347 39
-17 5 -25 3 -29 -10z"/>
<path d="M546 1711 c-10 -16 -7 -415 4 -516 6 -55 24 -158 40 -230 68 -310 81
-412 79 -621 -2 -175 0 -196 16 -214 31 -34 110 -51 260 -57 160 -6 268 7 335
40 l45 22 -1 60 c0 33 -2 121 -4 195 -3 147 12 241 87 575 35 154 36 169 41
398 2 131 1 263 -3 294 -6 50 -9 54 -28 49 -109 -30 -215 -40 -442 -40 -242 0
-338 9 -397 40 -15 8 -29 10 -32 5z"/>
</g>
</svg>
